o Highlight
v -0.529338013427199 0 -0.511293483710323
v -0.563398355522003 0 0.557933140762157
v 0.000597655246421525 0 0.65508437605834
v 0.534616797305128 0 0.598695446093953
v 0.536753049096681 0 -0.467395616429928
v 0.0581048205840968 0 -0.519081203471416
vt 0.0818525813877917 0.917512020828849
vt 0.0859088836344795 0.159155780665582
vt 0.459477776883123 0.155806615740212
vt 0.833046670131766 0.152457450814842
vt 0.676117266088241 0.751362546375722
vt 0.378984923738016 0.834437283602286
vn 0 1 0
g Highlight
f 1/1/1 2/2/1 3/3/1 4/4/1 5/5/1 6/6/1
#h 
