o Highlight
v -0.457946914185226 0 -0.455768787469622
v -0.517207713519202 0 0.0193180754809533
v -0.444251023926784 0 0.527858345743707
v 0.460238024813958 0 0.515725021470152
v 0.472955231428373 0 -0.415177124143448
v 0.0337335783629658 0 -0.485491832517853
vt 0.0818525813877917 0.917512020828849
vt 0.0838807325111356 0.538333900747215
vt 0.0859088836344795 0.159155780665582
vt 0.833046670131766 0.152457450814842
vt 0.676117266088241 0.751362546375722
vt 0.378984923738016 0.834437283602286
vn 0 1 0
g Highlight
f 1/1/1 2/2/1 3/3/1 4/4/1 5/5/1 6/6/1
#h 
